{"title":"Rock N Roll High School 1979 BRRip H264 LKRG","uid":5604579,"size":1609443425,"categoryP":"video","categoryS":"movies","magnet":"?xt=urn:btih:d7ce82a62ee44f9ee492e210ca6004cdb3f8f4c1&amp;dn=Rock+N+Roll+High+School+1979+BRRip+H264+LKRG&amp;tr=udp%3A%2F%2Ftracker.openbittorrent.com%3A80&amp;tr=udp%3A%2F%2Fopen.demonii.com%3A1337&amp;tr=udp%3A%2F%2Ftracker.coppersurfer.tk%3A6969&amp;tr=udp%3A%2F%2Fexodus.desync.com%3A6969","seeders":10,"leechers":2,"uploader":"neon","files":1,"time":1275519541,"description":"Rock N Roll High School 1979 BRRip H264 LKRG\n &lt;a href=&quot;\nhttp://www.imdb.com/title/tt0079813/&quot; rel=&quot;nofollow&quot; target=&quot;_NEW&quot;&gt;\nhttp://www.imdb.com/title/tt0079813/&lt;/a&gt; &lt;a href=&quot;\nhttp://en.wikipedia.org/wiki/Rock_%27n%27_Roll_High_School&quot; rel=&quot;nofollow&quot; target=&quot;_NEW&quot;&gt;\nhttp://en.wikipedia.org/wiki/Rock_%27n%27_Roll_High_School&lt;/a&gt; \n\nRelease Date: 24 August 1979 (USA)\n\nGenre: Comedy | Music\n\nPlot: Vince Lombardi High School has quite a reputation: it's the wildest, most rockin' high school around! That is, until a thug of a principal, Miss Togar, comes along and tries to make the school a totalitarian state. With the help of the Ramones, the students of Vince Lombardi battle Miss Togar's iron-fisted rule and take their battle to a truly rockin' conclusion!\n\nCast:\nP.J. Soles ... Riff Randell\nVincent Van Patten ... Tom Roberts\nClint Howard ... Eaglebauer\nDey Young ... Kate Rambeau\nMary Woronov ... Miss Evelyn Togar\nPaul Bartel ... Mr. McGree\nDick Miller ... Police Chief\nDon Steele ... Screamin' Steve Stevens\nAlix Elias ... Coach Steroid\nLoren Lester ... Fritz Hansel\nDaniel Davies ... Fritz Gretel\nLynn Farrell ... Angel Dust\nHerbie Braha ... Manager\nGrady Sutton ... School Board President\nChris Somma ... Shawn\nMarla Rosenfield ... Cheryl\nBarbara Ann Grimes ... Cafeteria Lady (as Barbara Ann Walters)\nTerry Soda ... Norma\nJoe Van Sickle ... Cop\nJoey Ramone ... Himself\nJohnny Ramone ... Himself\nDee Dee Ramone ... Himself\nMarky Ramone ... Himself\nDavid N. Barber ... Native American scalper (uncredited)\nRodney Bingenheimer ... Driver of Pink car w / The Ramones (uncredited)\nRob Bottin ... Giant Mouse (uncredited)\nDinah Cancer ... Concert Girl with Ear Muffs (uncredited)\nAnn Chatterton ... (uncredited)\nDarby Crash ... (uncredited)\nSylvia Dante ... Nun (uncredited)\nDebbie Evans ... (uncredited)\nJack Gill ... (uncredited)\nMichael Goodwin ... Chemistry Teacher (uncredited)\nJohn Hateley ... (uncredited)\nKay Kimler ... (uncredited)\nJoseph McBride ... School board member (uncredited)\nJim Rygiel ... Guy in line at mayan theater (uncredited)\nTeri Schwartz ... Nun (uncredited)\nGeorge Wagner ... Man Proposing in Phone Booth (uncredited)\n\nFile Name: Rock N Roll High School 1979 BRRip H264 LKRG-Wrath.mp4\n\nFile Size\nFormat : MPEG-4\nFormat profile : Base Media\nCodec ID : isom\nFile size : 1.50 GiB\nDuration : 1h 33mn\nOverall bit rate : 2 299 Kbps\n\nVideo\nID : 1\nFormat : AVC\nFormat/Info : Advanced Video Codec\nFormat profile : &lt;a class=&quot;__cf_email__&quot; href=&quot;/cdn-cgi/l/email-protection&quot; data-cfemail=&quot;642c0d030c2428504a55&quot;&gt;[email&amp;#160;protected]&lt;/a&gt;&lt;script cf-hash='f9e31' type=&quot;text/javascript&quot;&gt;\n/* &lt;![CDATA[ */!function(){try{var t=&quot;currentScript&quot;in document?document.currentScript:function(){for(var t=document.getElementsByTagName(&quot;script&quot;),e=t.length;e--;)if(t[e].getAttribute(&quot;cf-hash&quot;))return t[e]}();if(t&amp;&amp;t.previousSibling){var e,r,n,i,c=t.previousSibling,a=c.getAttribute(&quot;data-cfemail&quot;);if(a){for(e=&quot;&quot;,r=parseInt(a.substr(0,2),16),n=2;a.length-n;n+=2)i=parseInt(a.substr(n,2),16)^r,e+=String.fromCharCode(i);e=document.createTextNode(e),c.parentNode.replaceChild(e,c)}}}catch(u){}}();/* ]]&gt; */&lt;/script&gt;\nFormat settings, CABAC : Yes\nFormat settings, ReFrames : 3 frames\nCodec ID : avc1\nCodec ID/Info : Advanced Video Coding\nDuration : 1h 33mn\nBit rate mode : Variable\nBit rate : 2 138 Kbps\nMaximum bit rate : 8 754 Kbps\nWidth : 1 280 pixels\nHeight : 720 pixels\nDisplay aspect ratio : 16:9\nFrame rate mode : Constant\nFrame rate : 23.976 fps\nResolution : 24 bits\nColorimetry : 4:2:0\nScan type : Progressive\nBits/(Pixel*Frame) : 0.097\nStream size : 1.39 GiB (93%)\n\nAudio #1\nID : 2\nFormat : AAC\nFormat/Info : Advanced Audio Codec\nFormat version : Version 4\nFormat profile : LC\nFormat settings, SBR : No\nCodec ID : 40\nDuration : 1h 33mn\nBit rate mode : Variable\nBit rate : 160 Kbps\nMaximum bit rate : 173 Kbps\nChannel(s) : 2 channels\nChannel positions : L R\nSampling rate : 48.0 KHz\nResolution : 16 bits\nStream size : 107 MiB (7%)\n\nEnglish SRT : N/A\n\nLanguage :English","torrent":{"xt":"urn:btih:d7ce82a62ee44f9ee492e210ca6004cdb3f8f4c1","amp;dn":"Rock+N+Roll+High+School+1979+BRRip+H264+LKRG","amp;tr":["udp%3A%2F%2Ftracker.openbittorrent.com%3A80","udp%3A%2F%2Fopen.demonii.com%3A1337","udp%3A%2F%2Ftracker.coppersurfer.tk%3A6969","udp%3A%2F%2Fexodus.desync.com%3A6969"],"infoHash":"d7ce82a62ee44f9ee492e210ca6004cdb3f8f4c1","infoHashBuffer":{"type":"Buffer","data":[215,206,130,166,46,228,79,158,228,146,226,16,202,96,4,205,179,248,244,193]},"announce":[],"urlList":[]}}